<?xml version="1.0" encoding="utf-8"?>
<!-- Generator: Adobe Illustrator 22.1.0, SVG Export Plug-In . SVG Version: 6.00 Build 0)  -->
<svg version="1.1" id="bamf" xmlns="http://www.w3.org/2000/svg" xmlns:xlink="http://www.w3.org/1999/xlink" x="0px" y="0px"
	 viewBox="0 0 127.7 127.7" style="enable-background:new 0 0 127.7 127.7;" xml:space="preserve">
<style type="text/css">
	.st0{fill:url(#SVGID_1_);}
	.st1{fill:#EC3594;}
	.st2{fill:url(#SVGID_2_);}
	.st3{fill:#0873AA;}
	.st4{fill:url(#SVGID_3_);}
	.st5{fill:url(#SVGID_4_);}
	.st6{fill:url(#SVGID_5_);}
	.st7{fill:url(#SVGID_6_);}
	.st8{fill:url(#SVGID_7_);}
	.st9{fill:url(#SVGID_8_);}
	.st10{fill:url(#SVGID_9_);}
	.st11{fill:url(#SVGID_10_);}
	.st12{fill:url(#SVGID_11_);}
	.st13{fill:url(#SVGID_12_);}
	.st14{fill:url(#SVGID_13_);}
	.st15{fill:url(#SVGID_14_);}
	.st16{fill:url(#SVGID_15_);}
	.st17{fill:url(#SVGID_16_);}
</style>
<g id="cloud">
	<g>
		<linearGradient id="SVGID_1_" gradientUnits="userSpaceOnUse" x1="44.424" y1="66.0133" x2="57.4614" y2="66.0133">
			<stop  offset="0" style="stop-color:#662A7B"/>
			<stop  offset="1" style="stop-color:#662A7B"/>
		</linearGradient>
		<path class="st0" d="M44.4,41.2c0,0,10.7,28.5,0,47.6l11.5,5.4c0,0,5.2-52.7-3.5-55.7C43.7,35.6,44.4,41.2,44.4,41.2z"/>
	</g>
	<path class="st1" d="M80.9,39.7c0,0-10.7,30.9,0,51.7l-6.5,5.9c0,0-10.2-57.3-1.4-60.5S80.9,39.7,80.9,39.7z"/>
	<path class="st1" d="M71.9,39.7c0,0-2.5,32.2,3.3,54.5l-9.8,3.1c0,0-10.2-57.3-1.4-60.5S71.9,39.7,71.9,39.7z"/>
	<g>
		<linearGradient id="SVGID_2_" gradientUnits="userSpaceOnUse" x1="59.424" y1="66.6544" x2="74.1771" y2="66.6544">
			<stop  offset="0" style="stop-color:#662A7B"/>
			<stop  offset="1" style="stop-color:#662A7B"/>
		</linearGradient>
		<path class="st2" d="M70.9,39.7c0,0-2.5,32.2,3.3,54.5l-9.8,3.1c0,0-10.2-57.3-1.4-60.5S70.9,39.7,70.9,39.7z"/>
	</g>
	<path class="st1" d="M52.7,39.7c0,0,7,32.2,1.3,54.5l17.8,2c0,0-15.8-31.6-11.1-59.4C61.8,29.9,52.7,39.7,52.7,39.7z"/>
	<path class="st3" d="M54.2,6.9C54.1,6.7,54,6.5,54,6.3C54,6.3,54,6.5,54.2,6.9z"/>
	<linearGradient id="SVGID_3_" gradientUnits="userSpaceOnUse" x1="63.0424" y1="47.1704" x2="63.0424" y2="0">
		<stop  offset="0" style="stop-color:#A70063"/>
		<stop  offset="1" style="stop-color:#EF549E"/>
	</linearGradient>
	<path class="st4" d="M9.3,24.9c0-5.8,4.7-10.6,10.6-10.6c1,0,2,0.2,2.9,0.4c0.4-2.9,2.9-5.1,5.9-5.1c1.1,0,2.1,0.3,2.9,0.8
		c0.5-1.1,1.6-1.8,2.8-1.8c1,0,1.9,0.5,2.4,1.2c1.7-3.7,5.5-6.2,9.8-6.2c2.4,0,4.6,0.8,6.3,2.1c1.4-1,3.1-1.7,5-1.7
		c0.6,0,1.2,0.1,1.8,0.2c2-2.5,5-4.2,8.4-4.2c3.7,0,7,1.9,8.9,4.8C78.1,4.4,79,4.2,80,4.2c2.8,0,5.2,1.6,6.4,4C88.4,6.8,91,6,93.7,6
		c5.8,0,10.8,3.8,12.3,9.1c0.3,0,0.5-0.1,0.8-0.1c2.9,0,5.2,2.3,5.2,5.2c0,0.5-0.1,1-0.2,1.5c2.9,1.3,5,4.3,5,7.7
		c0,4.6-3.8,8.4-8.4,8.4c-1.3,0-2.6-0.3-3.7-0.8c-1.5,2.9-4.5,5-8,5c-0.7,0-1.3-0.1-1.9-0.2c-0.5,2.3-2.6,4.1-5.1,4.1
		c-1.5,0-2.9-0.7-3.9-1.7c-1.9,1.6-4.4,2.7-7.1,2.7c-3.1,0-6-1.3-8-3.5c-2.3,2.4-5.5,4-9.1,4c-4,0-7.5-1.9-9.8-4.8
		c-1.1,1.2-2.6,2-4.3,2c-1.6,0-3.1-0.7-4.2-1.8c-1.9,1.8-4.4,2.9-7.1,2.9c-3.1,0-5.9-1.4-7.8-3.5c-0.8,0.2-1.6,0.4-2.5,0.4
		c-4.2,0-7.6-3-8.2-7C12.9,34.2,9.3,30,9.3,24.9z"/>
	<g>
		<linearGradient id="SVGID_4_" gradientUnits="userSpaceOnUse" x1="62.849" y1="47.1704" x2="62.849" y2="21.3833">
			<stop  offset="0" style="stop-color:#66297B"/>
			<stop  offset="1" style="stop-color:#A7519F"/>
		</linearGradient>
		<path class="st5" d="M10,21.4c0.4,9.6,11.5,6,11.5,6c-3.7,6.8,6.1,13.5,6.8,9.5c0.7-4.1,2.8-4.6,2.8-4.6c-3,4.7-0.3,6.7,5,8.2
			c5.3,1.5,8-4.1,8-4.1s0.7,4.8,4.3,3.9c3.6-0.9,3.2-4.7,3.2-4.7s3.5,4.8,10,4.4c5.6-0.3,7.7-1.7,8.7-3.7c-1.5,3.6,2.6,3.2,9.1,3
			c6.8-0.2,7.4-5.4,7.4-5.4c1.4,2.1,9,4.1,11.7-1.6c2.7-5.7,2-8,2-8c6.5,2.3,1.2,9.3,9.1,10.6c2.8,0.5,5.3-0.9,6.7-3
			c-1.1,3.4-4.3,5.9-8,5.9c-1.3,0-2.6-0.3-3.7-0.8c-1.5,2.9-4.5,5-8,5c-0.7,0-1.3-0.1-1.9-0.2c-0.5,2.3-2.6,4.1-5.1,4.1
			c-1.5,0-2.9-0.7-3.9-1.7c-1.9,1.6-4.4,2.7-7.1,2.7c-3.1,0-6-1.3-8-3.5c-2.3,2.4-5.5,4-9.1,4c-4,0-7.5-1.9-9.8-4.8
			c-1.1,1.2-2.6,2-4.3,2c-1.6,0-3.1-0.7-4.2-1.8c-1.9,1.8-4.4,2.9-7.1,2.9c-3.1,0-5.9-1.4-7.8-3.5c-0.8,0.2-1.6,0.4-2.5,0.4
			c-4.2,0-7.6-3-8.2-7c-4.7-1.1-8.3-5.3-8.3-10.3C9.3,23.7,9.6,22.5,10,21.4z"/>
	</g>
	<g>
		<linearGradient id="SVGID_5_" gradientUnits="userSpaceOnUse" x1="63.0424" y1="127.6985" x2="63.0424" y2="87.6937">
			<stop  offset="0" style="stop-color:#66297B"/>
			<stop  offset="1" style="stop-color:#A7519F"/>
		</linearGradient>
		<path class="st6" d="M116.7,106.5c0,4.9-4.7,9-10.6,9c-1,0-2-0.1-2.9-0.4c-0.4,2.5-2.9,4.3-5.9,4.3c-1.1,0-2.1-0.2-2.9-0.7
			c-0.5,0.9-1.6,1.6-2.8,1.6c-1,0-1.9-0.4-2.4-1c-1.7,3.1-5.5,5.3-9.8,5.3c-2.4,0-4.6-0.6-6.3-1.7c-1.4,0.9-3.1,1.4-5,1.4
			c-0.6,0-1.2-0.1-1.8-0.2c-2,2.1-5,3.5-8.4,3.5c-3.7,0-7-1.6-8.9-4.1c-0.8,0.3-1.8,0.5-2.8,0.5c-2.8,0-5.2-1.4-6.4-3.4
			c-2.1,1.2-4.6,1.9-7.3,1.9c-5.8,0-10.8-3.3-12.3-7.7c-0.3,0-0.5,0.1-0.8,0.1c-2.9,0-5.2-2-5.2-4.4c0-0.4,0.1-0.9,0.2-1.3
			c-2.9-1.1-5-3.6-5-6.5c0-3.9,3.8-7.1,8.4-7.1c1.3,0,2.6,0.3,3.7,0.7c1.5-2.5,4.5-4.2,8-4.2c0.7,0,1.3,0.1,1.9,0.2
			c0.5-2,2.6-3.4,5.1-3.4c1.5,0,2.9,0.6,3.9,1.5c1.9-1.4,4.4-2.2,7.1-2.2c3.1,0,6,1.1,8,2.9c2.3-2.1,5.5-3.4,9.1-3.4
			c4,0,7.5,1.6,9.8,4c1.1-1,2.6-1.7,4.3-1.7c1.6,0,3.1,0.6,4.2,1.5c1.9-1.5,4.4-2.4,7.1-2.4c3.1,0,5.9,1.2,7.8,3
			c0.8-0.2,1.6-0.3,2.5-0.3c4.2,0,7.6,2.6,8.2,6C113.2,98.7,116.7,102.3,116.7,106.5z"/>
	</g>
	<linearGradient id="SVGID_6_" gradientUnits="userSpaceOnUse" x1="63.0095" y1="122.865" x2="63.0095" y2="84.5">
		<stop  offset="0" style="stop-color:#A70063"/>
		<stop  offset="1" style="stop-color:#EA3794"/>
	</linearGradient>
	<path class="st7" d="M108.5,96.4c-0.6-4-4.1-7-8.2-7c-0.9,0-1.7,0.1-2.5,0.4c-1.9-2.2-4.7-3.5-7.8-3.5c-2.8,0-5.3,1.1-7.1,2.9
		c-1-1.1-2.5-1.8-4.2-1.8c-1.7,0-3.3,0.8-4.3,2c-2.3-2.9-5.8-4.8-9.8-4.8c-3.6,0-6.9,1.5-9.1,4c-2-2.1-4.8-3.5-8-3.5
		c-2.7,0-5.2,1-7.1,2.7c-1-1.1-2.3-1.7-3.9-1.7c-2.5,0-4.6,1.7-5.1,4.1c-0.6-0.1-1.3-0.2-1.9-0.2c-3.5,0-6.5,2-8,5
		c-1.1-0.5-2.4-0.8-3.7-0.8c-4.6,0-8.4,3.8-8.4,8.4c0,0.8,0.1,1.5,0.3,2.2c1,0.8,2.3,1.3,3.7,1.3c0.3,0,0.6,0,0.9-0.1
		c1.8,6,7.4,10.3,14,10.3c3.1,0,6-1,8.3-2.6c1.3,2.7,4,4.5,7.2,4.5c1.1,0,2.2-0.2,3.1-0.6c2.2,3.3,5.9,5.4,10.1,5.4
		c3.9,0,7.4-1.9,9.6-4.7c0.6,0.1,1.3,0.2,2,0.2c2.1,0,4.1-0.7,5.7-1.9c2,1.5,4.5,2.3,7.2,2.3c4.9,0,9.2-2.9,11.1-7.1
		c0.6,0.8,1.6,1.4,2.8,1.4c1.4,0,2.7-0.9,3.2-2.1c1,0.6,2.1,0.9,3.3,0.9c3.4,0,6.2-2.5,6.7-5.8c1.1,0.3,2.2,0.5,3.3,0.5
		c1.7,0,3.2-0.3,4.7-0.9C116.2,101.1,112.8,97.4,108.5,96.4z"/>
</g>
<g id="Letters">
	<g>
		<linearGradient id="SVGID_7_" gradientUnits="userSpaceOnUse" x1="102.7786" y1="86.1958" x2="102.7786" y2="49.1131">
			<stop  offset="0" style="stop-color:#F57E20"/>
			<stop  offset="1" style="stop-color:#F1E915"/>
		</linearGradient>
		<path class="st8" d="M96.6,77.9l6.6,1.6l-1.5,6.7l-6.6-1.6L96.6,77.9z M103.9,49.1l6.5,1.7l-5.8,22.7L98,71.8L103.9,49.1z"/>
		<linearGradient id="SVGID_8_" gradientUnits="userSpaceOnUse" x1="102.8172" y1="89.0111" x2="102.8172" y2="46.2918">
			<stop  offset="0" style="stop-color:#66297B"/>
			<stop  offset="1" style="stop-color:#A7519F"/>
		</linearGradient>
		<path class="st9" d="M103.9,49.1l6.5,1.7l-5.8,22.7L98,71.8L103.9,49.1 M96.6,77.9l6.6,1.6l-1.5,6.7l-6.6-1.6L96.6,77.9
			 M102.2,46.3l-0.6,2.2l-5.8,22.7l-0.6,2.3l2.3,0.6l6.6,1.7l2.3,0.6l0.6-2.3l5.8-22.7l0.6-2.3l-2.3-0.6l-6.5-1.7L102.2,46.3
			L102.2,46.3z M94.8,75l-0.5,2.3l-1.5,6.7l-0.5,2.2l2.2,0.5l6.6,1.6l2.3,0.6l0.5-2.3l1.5-6.7l0.5-2.2l-2.2-0.5l-6.6-1.6L94.8,75
			L94.8,75z"/>
	</g>
	<g>
		<g>
			<linearGradient id="SVGID_9_" gradientUnits="userSpaceOnUse" x1="88.9911" y1="77.8799" x2="88.9911" y2="52.4515">
				<stop  offset="0" style="stop-color:#F57E20"/>
				<stop  offset="1" style="stop-color:#F1E915"/>
			</linearGradient>
			<path class="st10" d="M87.4,64.5l6.9,0.2l-0.2,6.2l-7.5-0.2l-1.1,7.3L79.4,77l3.4-24.6l15.8,1.7l-0.7,6.2l-9.7-1.1L87.4,64.5z"/>
		</g>
		<g>
			<linearGradient id="SVGID_10_" gradientUnits="userSpaceOnUse" x1="88.9765" y1="80.5097" x2="88.9765" y2="49.8904">
				<stop  offset="0" style="stop-color:#66297B"/>
				<stop  offset="1" style="stop-color:#A7519F"/>
			</linearGradient>
			<path class="st11" d="M82.7,52.5l15.8,1.7l-0.7,6.2l-9.7-1.1l-0.7,5.2l6.9,0.2l-0.2,6.2l-7.5-0.2l-1.1,7.3L79.4,77L82.7,52.5
				 M80.7,49.9l-0.3,2.2l-3.4,24.6L76.8,79l2.3,0.3l6.1,0.9l2.3,0.3l0.3-2.3l0.8-5.2l5.5,0.1l2.3,0.1l0.1-2.3l0.2-6.2l0.1-2.1
				l0.9,0.1l2.3,0.3l0.3-2.3l0.7-6.2l0.3-2.3l-2.3-0.3L83,50.1L80.7,49.9L80.7,49.9z M90.1,62.2l0-0.4l4.2,0.5L90.1,62.2L90.1,62.2z
				"/>
		</g>
	</g>
	<g>
		<g>
			<linearGradient id="SVGID_11_" gradientUnits="userSpaceOnUse" x1="64.9725" y1="79.0205" x2="64.9725" y2="50.5172">
				<stop  offset="0" style="stop-color:#F57E20"/>
				<stop  offset="1" style="stop-color:#F1E915"/>
			</linearGradient>
			<path class="st12" d="M52.5,78.4L53.1,53l5.9-1.1l1,0l5.2,7.6l5.4-8.9l6.9,1.2L77.2,79l-7-0.1l0.1-14.6l-2,3.4l-2.9,4.6l-3-4.5
				l-2.7-3.8l-0.3,14.6L52.5,78.4z"/>
		</g>
		<g>
			<linearGradient id="SVGID_12_" gradientUnits="userSpaceOnUse" x1="64.9546" y1="81.3732" x2="64.9546" y2="47.9501">
				<stop  offset="0" style="stop-color:#66297B"/>
				<stop  offset="1" style="stop-color:#A7519F"/>
			</linearGradient>
			<path class="st13" d="M70.6,50.5l6.9,1.2L77.2,79l-7-0.1l0.1-14.6l-2,3.4l-2.9,4.6l-3-4.5l-2.7-3.8l-0.3,14.6l-7-0.2L53.1,53
				l5.9-1.1l1,0l5.2,7.6L70.6,50.5 M69.4,48l-0.8,1.4l-3.6,5.9l-3.2-4.6l-0.7-1.1l-1.3,0l-1,0l-0.2,0l-0.2,0l-5.9,1.1L50.8,51l0,1.9
				l-0.6,25.5l-0.1,2.3l2.3,0.1l7,0.2l2.3,0.1l0.1-2.3l0.2-7.3l1.6,2.3l2,3l1.9-3.1l0.5-0.8l0,6.1l0,2.3l2.3,0l7,0.1l2.3,0l0-2.3
				l0.2-27.3l0-2l-1.9-0.3L71,48.2L69.4,48L69.4,48z"/>
		</g>
	</g>
	<g>
		<g>
			<linearGradient id="SVGID_13_" gradientUnits="userSpaceOnUse" x1="42.5758" y1="79.2932" x2="42.5758" y2="51.9314">
				<stop  offset="0" style="stop-color:#F57E20"/>
				<stop  offset="1" style="stop-color:#F1E915"/>
			</linearGradient>
			<path class="st14" d="M39.2,52.1l6.8-0.2l7.6,24.8l-6.5,2.1L46,75.3l-6.7,0.2l-1.1,3.8l-6.5-2L39.2,52.1z M42.6,64.8l-1.2,3.9
				l2.4,0L42.6,64.8z"/>
		</g>
		<g>
			<linearGradient id="SVGID_14_" gradientUnits="userSpaceOnUse" x1="42.5783" y1="82.2088" x2="42.5783" y2="49.5564">
				<stop  offset="0" style="stop-color:#66297B"/>
				<stop  offset="1" style="stop-color:#A7519F"/>
			</linearGradient>
			<path class="st15" d="M45.9,51.9l7.6,24.8l-6.5,2.1L46,75.3l-6.7,0.2l-1.1,3.8l-6.5-2l7.6-25.2L45.9,51.9 M41.4,68.6l2.4,0
				l-1.2-3.8L41.4,68.6 M47.6,49.6l-1.8,0l-6.8,0.2l-1.7,0l-0.5,1.6l-7.6,25.2l-0.7,2.2l2.2,0.7l6.5,2l2.2,0.7l0.7-2.3l0.7-2.2
				l3.3-0.1l0.6,1.8l0.7,2.2l2.2-0.7l6.5-2.1l2.2-0.7L55.8,76l-7.6-24.8L47.6,49.6L47.6,49.6z"/>
		</g>
	</g>
	<g>
		<linearGradient id="SVGID_15_" gradientUnits="userSpaceOnUse" x1="24.7939" y1="77.6446" x2="24.7939" y2="52.6594">
			<stop  offset="0" style="stop-color:#F57E20"/>
			<stop  offset="1" style="stop-color:#F1E915"/>
		</linearGradient>
		<path class="st16" d="M30.1,64.3c0.9,0.6,1.6,1.4,2.1,2.3c0.5,0.9,0.7,1.8,0.7,2.8c0,0.8-0.1,1.5-0.4,2.1
			c-0.3,0.7-0.6,1.3-1.1,1.9c-0.4,0.6-1,1.1-1.5,1.5s-1.2,0.8-1.8,1.1c-0.8,0.4-1.6,0.7-2.5,0.9c-0.9,0.2-1.8,0.4-2.7,0.5
			c-0.9,0.1-1.8,0.2-2.8,0.2c-0.9,0-1.9,0-2.8,0.1l-0.7-24.9c1.3,0,2.7-0.1,4.2-0.1c1.4,0,2.8,0.1,4.1,0.3c1.3,0.2,2.5,0.6,3.6,1.2
			c1.1,0.6,2,1.5,2.6,2.7c0.7,1.2,0.9,2.5,0.7,3.9C31.6,62,31.1,63.2,30.1,64.3z M23.1,58.9l0.1,2.5c0.6-0.2,1.1-0.4,1.7-0.8
			c0.5-0.3,0.9-0.7,0.9-1c-0.1-0.2-0.4-0.4-0.9-0.5C24.4,59,23.8,59,23.1,58.9z M23.3,71.1c0.6-0.1,1.2-0.3,1.8-0.6
			c0.6-0.3,1.1-0.6,1.5-1.2c-0.3-0.3-0.7-0.4-1.3-0.6c-0.6-0.1-1.3-0.2-2.1-0.3L23.3,71.1z"/>
		<linearGradient id="SVGID_16_" gradientUnits="userSpaceOnUse" x1="24.7639" y1="80.0291" x2="24.7639" y2="50.3329">
			<stop  offset="0" style="stop-color:#66297B"/>
			<stop  offset="1" style="stop-color:#A7519F"/>
		</linearGradient>
		<path class="st17" d="M21.4,52.7c1.2,0,2.4,0.1,3.5,0.3c1.3,0.2,2.5,0.6,3.6,1.2c1.1,0.6,2,1.5,2.6,2.7c0.7,1.2,0.9,2.5,0.7,3.9
			c-0.2,1.3-0.8,2.5-1.8,3.6c0.9,0.6,1.6,1.4,2.1,2.3c0.5,0.9,0.7,1.8,0.7,2.8c0,0.8-0.1,1.5-0.4,2.1c-0.3,0.7-0.6,1.3-1.1,1.9
			c-0.4,0.6-1,1.1-1.5,1.5c-0.6,0.5-1.2,0.8-1.8,1.1c-0.8,0.4-1.6,0.7-2.5,0.9c-0.9,0.2-1.8,0.4-2.7,0.5c-0.9,0.1-1.8,0.2-2.8,0.2
			c-0.9,0-1.9,0-2.8,0.1l-0.7-24.9c1.3,0,2.7-0.1,4.2-0.1C21,52.7,21.2,52.7,21.4,52.7 M23.1,61.5c0.6-0.2,1.1-0.4,1.7-0.8
			c0.5-0.3,0.9-0.7,0.9-1c-0.1-0.2-0.4-0.4-0.9-0.5c-0.5-0.1-1.1-0.2-1.8-0.3L23.1,61.5 M23.3,71.1c0.6-0.1,1.2-0.3,1.8-0.6
			c0.6-0.3,1.1-0.6,1.5-1.2c-0.3-0.3-0.7-0.4-1.3-0.6c-0.6-0.1-1.3-0.2-2.1-0.3L23.3,71.1 M21.4,50.3c-0.2,0-0.4,0-0.7,0
			c-1.5,0-2.9,0.1-4.2,0.1l-2.3,0.1l0.1,2.3L15,77.7L15,80l2.3-0.1l0.4,0l2.3-0.1c1,0,2-0.1,3-0.2c1-0.1,2-0.3,3-0.5
			c1-0.3,2-0.6,3-1.1c0.8-0.4,1.5-0.8,2.3-1.4c0.7-0.6,1.4-1.2,1.9-1.9c0.6-0.7,1.1-1.6,1.4-2.4c0.4-0.9,0.6-1.9,0.6-3
			c0-1.3-0.3-2.6-1-3.9c-0.3-0.5-0.7-1.1-1.1-1.5c0.5-0.9,0.8-1.8,1-2.8c0.3-1.9,0-3.7-0.9-5.4c-0.9-1.6-2.1-2.8-3.6-3.6
			c-1.3-0.7-2.8-1.2-4.4-1.5C24.1,50.4,22.8,50.3,21.4,50.3L21.4,50.3z"/>
	</g>
</g>
</svg>
